<svg width="323" height="103" viewBox="0 0 323 103" fill="none" xmlns="http://www.w3.org/2000/svg"><path d="M6.375 75.897c0-8.216 6.66-14.876 14.876-14.876h279.012c8.898 0 16.112 7.214 16.112 16.112v2.102c0 8.898-7.214 16.112-16.112 16.112H20.453c-7.775 0-14.078-6.303-14.078-14.078z" fill="#569B0B"/><g filter="url(#a)"><path d="M6.375 19.03c0-8.898 7.214-16.112 16.112-16.112h277.776c8.898 0 16.112 7.214 16.112 16.113v22.892l-4.332 6.14 4.332 7.945v20.798c0 8.899-7.214 16.112-16.112 16.112H22.487c-8.898 0-16.112-7.213-16.112-16.112V56.008l4.08-7.945-4.08-6.14z" fill="url(#b)"/></g><defs><linearGradient id="b" x1="6.375" y1="2.918" x2="315.1" y2="97.746" gradientUnits="userSpaceOnUse"><stop stop-color="#60AD0D"/><stop offset=".435" stop-color="#B9F37B"/><stop offset="1" stop-color="#60AD0D"/></linearGradient><filter id="a" x=".375" y=".918" width="322" height="118.853" filterUnits="userSpaceOnUse" color-interpolation-filters="sRGB"><feFlood flood-opacity="0" result="BackgroundImageFix"/><feColorMatrix in="SourceAlpha" values="0 0 0 0 0 0 0 0 0 0 0 0 0 0 0 0 0 0 127 0" result="hardAlpha"/><feOffset dy="4"/><feGaussianBlur stdDeviation="3"/><feComposite in2="hardAlpha" operator="out"/><feColorMatrix values="0 0 0 0 0 0 0 0 0 0 0 0 0 0 0 0 0 0 0.25 0"/><feBlend in2="BackgroundImageFix" result="effect1_dropShadow_1057_517"/><feBlend in="SourceGraphic" in2="effect1_dropShadow_1057_517" result="shape"/><feColorMatrix in="SourceAlpha" values="0 0 0 0 0 0 0 0 0 0 0 0 0 0 0 0 0 0 127 0" result="hardAlpha"/><feOffset dy="26.853"/><feGaussianBlur stdDeviation="20"/><feComposite in2="hardAlpha" operator="arithmetic" k2="-1" k3="1"/><feColorMatrix values="0 0 0 0 0.698283 0 0 0 0 0.929167 0 0 0 0 0.452969 0 0 0 1 0"/><feBlend in2="shape" result="effect2_innerShadow_1057_517"/></filter></defs></svg>